<?xml version="1.0"?>
<svg width="100" height="125" xmlns="http://www.w3.org/2000/svg" xmlns:svg="http://www.w3.org/2000/svg">
 <g class="layer">
  <title>Layer 1</title>
  <path d="m50.97,55.64l1.03,-5.14l1.03,5.14c1.9,9.5 9.33,16.93 18.83,18.83l5.14,1.03l-5.14,1.03c-9.5,1.9 -16.93,9.33 -18.83,18.83l-1.03,5.14l-1.03,-5.14c-1.9,-9.5 -9.33,-16.93 -18.83,-18.83l-5.14,-1.03l5.14,-1.03c9.5,-1.9 16.93,-9.33 18.83,-18.83z" fill="black" id="svg_1"/>
  <path d="m30.65,32.24l0.52,-2.57l0.51,2.57c0.95,4.75 4.66,8.46 9.41,9.41l2.58,0.52l-2.58,0.51c-4.75,0.95 -8.46,4.66 -9.41,9.41l-0.51,2.58l-0.52,-2.58c-0.95,-4.75 -4.66,-8.46 -9.41,-9.41l-2.57,-0.51l2.57,-0.52c4.75,-0.95 8.46,-4.66 9.41,-9.41z" fill="black" id="svg_2"/>
  <path d="m72.49,35.55l0.34,-1.72l0.35,1.72c0.63,3.16 3.11,5.64 6.27,6.27l1.72,0.35l-1.72,0.34c-3.16,0.63 -5.64,3.11 -6.27,6.28l-0.35,1.71l-0.34,-1.71c-0.63,-3.17 -3.11,-5.65 -6.28,-6.28l-1.71,-0.34l1.71,-0.35c3.17,-0.63 5.65,-3.11 6.28,-6.27z" fill="black" id="svg_3"/>
 </g>
</svg>