<?xml version="1.0"?>
<svg width="100" height="125" xmlns="http://www.w3.org/2000/svg" xmlns:svg="http://www.w3.org/2000/svg" enable-background="new 0 0 100 100" version="1.1" xml:space="preserve">
 <g class="layer">
  <title>Layer 1</title>
  <g id="svg_1">
   <path d="m86.9,61.16c-0.62,-2.93 -2.06,-4.84 -4.04,-5.39c-0.14,-0.04 -0.27,-0.06 -0.41,-0.08c0,-0.03 0,-0.05 0,-0.07c-0.05,-1.35 -0.09,-2.74 -0.09,-4.13c0,-0.87 -0.04,-1.07 -0.17,-1.36c-0.02,-0.06 -0.08,-0.17 -0.15,-0.69l-0.09,-0.65l-2.47,0c-0.44,-15.11 -13.49,-27.29 -29.48,-27.29c-15.99,0 -29.04,12.18 -29.48,27.29l-2.43,0l-0.09,0.65c-0.07,0.5 -0.11,0.59 -0.13,0.62c-0.14,0.29 -0.17,0.5 -0.17,1.33c0,1.44 -0.06,2.89 -0.12,4.29c-0.14,0.03 -0.29,0.05 -0.44,0.09c-1.98,0.54 -3.42,2.46 -4.04,5.39c-0.59,2.76 -0.4,6.14 0.53,9.53c1.47,5.36 4.45,9.48 7.55,10.76c0.3,2.02 0.58,4.08 0.81,6.14c0.8,6.99 7.75,12.24 12.35,15.71c1.23,0.92 2.28,1.72 3,2.39c3.34,3.07 6.24,4.17 11.62,4.35l0,0.02l1.02,0l0.27,0l0.75,-0.01l0,-0.02c5.38,-0.17 8.27,-1.27 11.61,-4.35c0.72,-0.66 1.78,-1.46 3,-2.38c4.61,-3.48 11.56,-8.73 12.35,-15.71c0.23,-2.05 0.51,-4.11 0.82,-6.12c3.11,-1.26 6.12,-5.4 7.59,-10.78c0.93,-3.39 1.12,-6.77 0.53,-9.53zm-36.9,-38.16c15.16,0 27.53,11.5 27.98,25.79l-4.2,0c-0.34,-2.2 -1.75,-4.03 -3.67,-4.83c-0.35,-0.16 -0.72,-0.29 -1.11,-0.38c1.01,-1.17 1.58,-2.69 1.58,-4.33c0,-3.58 -2.77,-6.49 -6.17,-6.49c-0.37,0 -0.74,0.05 -1.11,0.12c-0.22,-3.27 -2.81,-5.87 -5.98,-5.87c-0.02,0 -0.03,0.01 -0.05,0.01c-0.07,0 -0.13,-0.01 -0.2,-0.01c-3.29,0 -6.17,3.23 -6.17,6.91l0,4.01c0,0.4 0.32,0.73 0.72,0.73c0.39,0 0.71,-0.33 0.71,-0.73l0,-4.01c0,-2.9 2.22,-5.45 4.74,-5.45c2.61,0 4.74,2.25 4.74,5.03c0,0.08 -0.01,0.16 -0.01,0.24l-0.01,0.07c-0.01,0.09 0.01,0.18 0.04,0.27c-0.35,2.31 -2.24,4.09 -4.51,4.09c-0.4,0 -0.72,0.33 -0.72,0.73c0,0.4 0.32,0.73 0.72,0.73c2.95,0 5.41,-2.27 5.9,-5.23c0.4,-0.11 0.79,-0.18 1.19,-0.18c2.61,0 4.74,2.25 4.74,5.03c0,1.79 -0.87,3.41 -2.33,4.32c-0.02,0.01 -0.03,0.03 -0.04,0.04c-2.47,0.48 -4.38,2.57 -4.78,5.18l-4.62,0l0,-0.92l2.36,0c0.4,0 0.72,-0.33 0.72,-0.73c0,-0.4 -0.32,-0.73 -0.72,-0.73l-2.36,0l0,-1.63c0,-1.08 -0.87,-1.97 -1.94,-1.97l-1.69,0l0,-2.41c0,-0.4 -0.32,-0.73 -0.71,-0.73c-0.4,0 -0.72,0.33 -0.72,0.73l0,2.41l-1.61,0l0,-2.41c0,-0.4 -0.32,-0.73 -0.71,-0.73c-0.4,0 -0.72,0.33 -0.72,0.73l0,2.41l-1.61,0l0,-2.41c0,-0.4 -0.32,-0.73 -0.71,-0.73c-0.4,0 -0.72,0.33 -0.72,0.73l0,2.41l-1.68,0c-1.07,0 -1.94,0.89 -1.94,1.98l0,2.02l-2.37,0c-0.4,0 -0.72,0.33 -0.72,0.73c0,0.4 0.32,0.72 0.72,0.72l2.37,0l0,0.53l-4.63,0c-0.4,-2.61 -2.31,-4.7 -4.78,-5.18c-0.01,-0.01 -0.02,-0.03 -0.03,-0.04c-1.46,-0.91 -2.33,-2.53 -2.33,-4.32c0,-2.78 2.12,-5.03 4.74,-5.03c0.39,0 0.79,0.07 1.18,0.18c0.49,2.96 2.95,5.23 5.91,5.23c0.39,0 0.71,-0.33 0.71,-0.73c0,-0.4 -0.32,-0.73 -0.71,-0.73c-2.29,0 -4.19,-1.8 -4.52,-4.13c0.03,-0.1 0.05,-0.19 0.04,-0.29c0,-0.08 -0.01,-0.17 -0.01,-0.25c0,-2.78 2.13,-5.04 4.74,-5.04c2.52,0 4.74,2.55 4.74,5.46l0,4.01c0,0.4 0.32,0.73 0.71,0.73c0.4,0 0.71,-0.33 0.71,-0.73l0,-4.01c0,-3.68 -2.88,-6.91 -6.16,-6.91c-0.07,0 -0.14,0.01 -0.21,0.01c-0.01,0 -0.03,-0.01 -0.05,-0.01c-3.16,0 -5.75,2.59 -5.97,5.87c-0.37,-0.08 -0.74,-0.12 -1.12,-0.12c-3.4,0 -6.16,2.91 -6.16,6.49c0,1.64 0.57,3.16 1.57,4.33c-0.38,0.09 -0.75,0.22 -1.11,0.37c-1.91,0.81 -3.33,2.64 -3.67,4.84l-4.19,0c0.44,-14.29 12.82,-25.79 27.98,-25.79zm22.32,25.79l-8.87,0c0.44,-2.18 2.25,-3.84 4.44,-3.84c0.6,0 1.17,0.13 1.7,0.35c1.36,0.63 2.39,1.93 2.73,3.49zm-18.24,-3.32l-8.16,0c-0.4,0 -0.72,0.33 -0.72,0.73l0,2.6l-1.15,0l0,-4.01c0,-0.29 0.23,-0.52 0.51,-0.52l10.88,0c0.28,0 0.51,0.23 0.51,0.52l0,4.01l-1.15,0l0,-2.6c0,-0.4 -0.32,-0.73 -0.72,-0.73zm-0.71,1.46l0,1.86l-6.74,0l0,-1.86l6.74,0zm-16.82,1.86l-8.87,0c0.34,-1.57 1.36,-2.86 2.73,-3.49c0.53,-0.22 1.1,-0.35 1.7,-0.35c2.19,0 4,1.66 4.44,3.84zm-21.48,21.51c-0.86,-3.16 -1.04,-6.3 -0.5,-8.82c0.5,-2.35 1.55,-3.86 2.96,-4.25c-0.12,3.12 -0.13,6.07 0.58,8.65c0.7,2.56 1.82,7.78 2.78,13.71c-2.33,-1.5 -4.65,-5.04 -5.82,-9.29zm61.4,17.12c-0.72,6.35 -7.36,11.36 -11.76,14.68c-1.26,0.95 -2.34,1.77 -3.11,2.48c-3.22,2.96 -5.87,3.89 -11.37,3.97l-0.25,0.01l-0.26,-0.01c-5.5,-0.08 -8.15,-1.01 -11.36,-3.97c-0.77,-0.71 -1.86,-1.53 -3.12,-2.48c-4.39,-3.32 -11.03,-8.33 -11.76,-14.68c-1.01,-8.95 -2.91,-18.22 -3.93,-21.94c-0.75,-2.74 -0.62,-6.07 -0.47,-9.59c0.06,-1.47 0.12,-2.98 0.12,-4.5c0,-0.51 0.01,-0.65 0.01,-0.65c0.06,-0.11 0.11,-0.23 0.16,-0.44l61.3,0c0.06,0.22 0.11,0.35 0.16,0.46c0.01,0.05 0.03,0.2 0.03,0.73c0,1.42 0.04,2.82 0.09,4.18c0.12,3.59 0.23,6.99 -0.55,9.81c-1.02,3.72 -2.92,12.99 -3.93,21.94zm8.46,-17.12c-1.19,4.3 -3.52,7.88 -5.87,9.35c0.96,-5.96 2.08,-11.21 2.79,-13.77c0.71,-2.59 0.73,-5.53 0.65,-8.65c1.39,0.41 2.43,1.91 2.93,4.25c0.54,2.52 0.36,5.65 -0.5,8.82z" id="svg_2"/>
   <path d="m43.69,82.33c-0.38,0.18 -0.53,0.62 -0.35,1c0.18,0.37 0.63,0.53 1,0.34c0.5,-0.24 1.33,-0.06 1.59,0.17c0.08,0.07 0.17,0.19 0.29,0.33c0.53,0.66 1.54,1.88 3.2,1.88l1.16,0c1.62,0 2.57,-1.14 3.14,-1.82c0.12,-0.15 0.23,-0.29 0.33,-0.37c0.29,-0.25 1.1,-0.43 1.6,-0.19c0.38,0.18 0.83,0.03 1.01,-0.34c0.18,-0.37 0.02,-0.82 -0.35,-1c-1.08,-0.53 -2.51,-0.22 -3.22,0.37c-0.18,0.15 -0.34,0.35 -0.53,0.57c-0.47,0.57 -1.06,1.28 -1.98,1.28l-1.16,0c-0.95,0 -1.58,-0.77 -2.04,-1.33c-0.18,-0.21 -0.33,-0.39 -0.45,-0.5c-0.69,-0.62 -2.16,-0.92 -3.24,-0.39z" id="svg_3"/>
   <path d="m64.67,61.45c-3.87,0 -6.54,2.04 -7.51,4.08c-1.06,1.4 -1.06,1.67 -1.06,1.87c0,0.64 0.52,1.16 1.16,1.16l0.23,-0.03c0,-0.01 0.39,-0.13 0.86,-0.06c0.1,0.01 0.41,0.12 0.68,0.21c1.08,0.38 2.89,1 5.21,1c4.69,0 8.13,-2.68 8.13,-4.07c0,-2.03 -3.96,-4.16 -7.7,-4.16zm-0.43,6.73c-2.06,0 -3.72,-0.57 -4.71,-0.91c-0.44,-0.15 -0.73,-0.25 -0.98,-0.29c-0.16,-0.02 -0.33,-0.03 -0.48,-0.03c-0.03,0 -0.06,0 -0.09,0c0.13,-0.18 0.27,-0.38 0.42,-0.57l0.09,-0.15c0.73,-1.63 2.93,-3.28 6.18,-3.28c3.29,0 6.04,1.82 6.19,2.59c-0.3,0.55 -2.66,2.64 -6.62,2.64z" id="svg_4"/>
   <path d="m41.65,68.47c0.46,-0.06 0.85,0.05 0.85,0.05l0.23,0.04c0.64,0 1.16,-0.52 1.16,-1.16c0,-0.2 0,-0.47 -1.05,-1.86c-0.97,-2.05 -3.65,-4.09 -7.52,-4.09c-3.74,0 -7.69,2.14 -7.69,4.16c0,1.39 3.43,4.07 8.13,4.07c2.31,0 4.12,-0.62 5.2,-0.99c0.27,-0.1 0.58,-0.21 0.69,-0.22zm-5.89,-0.29c-3.96,0 -6.32,-2.1 -6.62,-2.64c0.15,-0.77 2.9,-2.59 6.19,-2.59c3.24,0 5.44,1.65 6.18,3.28l0.09,0.15c0.15,0.19 0.29,0.39 0.42,0.57c-0.18,0 -0.37,0 -0.57,0.03c-0.25,0.03 -0.56,0.14 -0.98,0.29c-0.99,0.34 -2.65,0.91 -4.71,0.91z" id="svg_5"/>
   <path d="m30.46,58.62c0.08,0 8.52,-0.09 12.76,4.35c1.77,1.86 2.58,4.3 2.39,7.23c-0.03,0.42 0.28,0.77 0.7,0.8c0.01,0 0.03,0 0.05,0c0.39,0 0.72,-0.3 0.74,-0.7c0.22,-3.37 -0.72,-6.19 -2.8,-8.36c-4.7,-4.93 -13.5,-4.82 -13.87,-4.82c-0.41,0.01 -0.74,0.35 -0.74,0.77c0.01,0.41 0.33,0.74 0.77,0.73z" id="svg_6"/>
   <path d="m53.64,71c0.02,0 0.04,0 0.05,0c0.42,-0.03 0.73,-0.38 0.7,-0.8c-0.19,-2.93 0.61,-5.37 2.39,-7.23c4.24,-4.44 12.68,-4.34 12.76,-4.35c0.43,0.01 0.76,-0.32 0.77,-0.74c0,-0.41 -0.32,-0.75 -0.74,-0.76c-0.37,-0.01 -9.17,-0.11 -13.87,4.81c-2.08,2.18 -3.02,4.99 -2.8,8.37c0.02,0.4 0.35,0.7 0.74,0.7z" id="svg_7"/>
   <path d="m60.74,92.6c-6.8,-1.19 -7.46,-0.86 -7.68,-0.75c-0.08,0.04 -0.18,0.1 -0.31,0.17c-0.51,0.29 -1.46,0.83 -2.42,0.86l-0.64,0c-0.98,-0.04 -1.93,-0.57 -2.44,-0.86c-0.13,-0.07 -0.23,-0.13 -0.31,-0.17c-0.22,-0.11 -0.88,-0.44 -7.69,0.75c-0.4,0.07 -0.68,0.46 -0.61,0.87c0.08,0.41 0.47,0.68 0.87,0.61c1.66,-0.29 3.52,-0.57 4.87,-0.74l2.16,0c0.62,0.35 1.77,0.99 3.13,1.03l0.69,0c1.33,-0.04 2.48,-0.68 3.1,-1.03l2.09,0c1.37,0.16 3.25,0.44 4.94,0.74c0.4,0.07 0.79,-0.2 0.86,-0.61c0.08,-0.41 -0.19,-0.8 -0.61,-0.87z" id="svg_8"/>
   <path d="m53.74,96.34c-0.81,0.37 -1.62,0.57 -2.39,0.68l-2.46,0c-1.54,-0.2 -2.61,-0.67 -2.63,-0.68c-0.38,-0.18 -0.82,-0.01 -1,0.36c-0.17,0.37 -0.01,0.82 0.37,1c0.11,0.05 1.99,0.91 4.5,0.91c1.3,0 2.76,-0.23 4.24,-0.91c0.37,-0.18 0.54,-0.62 0.36,-1c-0.17,-0.37 -0.62,-0.54 -0.99,-0.36z" id="svg_9"/>
  </g>
 </g>
</svg>