<?xml version="1.0"?>
<svg width="110" height="135" xmlns="http://www.w3.org/2000/svg" xmlns:svg="http://www.w3.org/2000/svg" version="1.1">
 <g class="layer">
  <title>Layer 1</title>
  <path d="m43.36,73.34l27.28,0c0.36,0 0.7,-0.15 0.94,-0.39c0.24,-0.25 0.39,-0.57 0.39,-0.94l0,-27.29c0,-0.36 -0.15,-0.69 -0.39,-0.93c-0.24,-0.25 -0.57,-0.4 -0.94,-0.4l-27.28,0c-0.36,0 -0.7,0.15 -0.94,0.4c-0.24,0.24 -0.39,0.57 -0.39,0.93l0,27.29c0,0.36 0.15,0.69 0.39,0.94c0.24,0.24 0.57,0.39 0.94,0.39zm14.56,-42.2c-0.23,-0.23 -0.56,-0.37 -0.92,-0.37c-0.36,0 -0.68,0.14 -0.91,0.37c-0.23,0.24 -0.38,0.56 -0.38,0.92c0,0.36 0.15,0.68 0.38,0.91c0.23,0.23 0.56,0.38 0.91,0.38c0.36,0 0.69,-0.15 0.92,-0.38c0.23,-0.23 0.38,-0.56 0.38,-0.91c0,-0.36 -0.15,-0.68 -0.38,-0.92zm16.04,1.91c-0.16,-0.16 -0.37,-0.25 -0.6,-0.25c-0.23,0 -0.44,0.09 -0.6,0.25c-0.16,0.16 -0.26,0.37 -0.26,0.6c0,0.23 0.1,0.44 0.26,0.6c0.15,0.16 0.37,0.26 0.6,0.26c0.23,0 0.44,-0.1 0.6,-0.26c0.16,-0.15 0.25,-0.36 0.25,-0.6c0,-0.23 -0.09,-0.44 -0.25,-0.6zm-33.33,-0.25c-0.23,0 -0.44,0.09 -0.6,0.25c-0.15,0.16 -0.25,0.37 -0.25,0.6c0,0.23 0.09,0.44 0.25,0.6c0.16,0.16 0.37,0.26 0.6,0.26c0.23,0 0.44,-0.1 0.6,-0.26c0.16,-0.15 0.26,-0.36 0.26,-0.6c0,-0.23 -0.1,-0.44 -0.26,-0.6c-0.15,-0.16 -0.36,-0.25 -0.6,-0.25zm43.59,26.49c0.23,-0.23 0.38,-0.56 0.38,-0.91c0,-0.36 -0.15,-0.68 -0.38,-0.91c-0.23,-0.24 -0.56,-0.38 -0.91,-0.38c-0.36,0 -0.68,0.14 -0.92,0.38c-0.23,0.23 -0.37,0.55 -0.37,0.91c0,0.36 0.14,0.68 0.37,0.91s0.56,0.38 0.92,0.38c0.36,0 0.68,-0.15 0.91,-0.38zm-1.9,16.05c0.15,-0.16 0.25,-0.37 0.25,-0.61c0,-0.23 -0.09,-0.44 -0.25,-0.6c-0.16,-0.15 -0.37,-0.25 -0.6,-0.25c-0.24,0 -0.45,0.09 -0.61,0.25c-0.15,0.16 -0.25,0.37 -0.25,0.6c0,0.24 0.09,0.45 0.25,0.61c0.16,0.15 0.37,0.25 0.61,0.25c0.23,0 0.44,-0.09 0.6,-0.25zm0.25,-33.33c0,-0.23 -0.09,-0.44 -0.25,-0.6c-0.16,-0.16 -0.37,-0.26 -0.6,-0.26c-0.24,0 -0.45,0.1 -0.61,0.26c-0.15,0.15 -0.25,0.36 -0.25,0.6c0,0.23 0.09,0.44 0.25,0.6c0.16,0.16 0.37,0.25 0.61,0.25c0.23,0 0.44,-0.09 0.6,-0.25c0.15,-0.16 0.25,-0.37 0.25,-0.6zm-26.5,43.59c0.24,0.23 0.56,0.38 0.92,0.38c0.36,0 0.68,-0.15 0.91,-0.38c0.23,-0.23 0.38,-0.56 0.38,-0.92c0,-0.36 -0.15,-0.68 -0.38,-0.91c-0.23,-0.23 -0.56,-0.38 -0.91,-0.38c-0.36,0 -0.68,0.15 -0.92,0.38s-0.37,0.56 -0.37,0.91c0,0.36 0.14,0.69 0.37,0.92zm-16.04,-1.91c0.16,0.16 0.37,0.26 0.6,0.26c0.23,0 0.44,-0.1 0.6,-0.26c0.16,-0.15 0.26,-0.37 0.26,-0.6c0,-0.23 -0.1,-0.44 -0.26,-0.6c-0.15,-0.16 -0.36,-0.25 -0.6,-0.25c-0.23,0 -0.44,0.09 -0.6,0.25c-0.15,0.16 -0.25,0.37 -0.25,0.6c0,0.23 0.09,0.44 0.25,0.6zm33.33,0.26c0.23,0 0.44,-0.1 0.6,-0.26c0.16,-0.15 0.26,-0.37 0.26,-0.6c0,-0.23 -0.1,-0.44 -0.26,-0.6c-0.15,-0.16 -0.37,-0.25 -0.6,-0.25c-0.23,0 -0.44,0.09 -0.6,0.25c-0.16,0.16 -0.26,0.37 -0.26,0.6c0,0.23 0.1,0.44 0.26,0.6c0.15,0.16 0.37,0.26 0.6,0.26zm-43.59,-26.5c-0.23,0.23 -0.38,0.56 -0.38,0.91c0,0.36 0.15,0.69 0.38,0.92c0.23,0.23 0.56,0.38 0.91,0.38c0.36,0 0.69,-0.15 0.92,-0.38c0.23,-0.23 0.38,-0.56 0.38,-0.92c0,-0.36 -0.15,-0.68 -0.38,-0.91c-0.23,-0.23 -0.56,-0.38 -0.92,-0.38c-0.36,0 -0.68,0.15 -0.91,0.38zm1.91,-16.04c-0.16,0.15 -0.26,0.36 -0.26,0.6c0,0.23 0.1,0.44 0.26,0.6c0.15,0.16 0.36,0.25 0.6,0.25c0.23,0 0.44,-0.09 0.6,-0.25c0.16,-0.16 0.25,-0.37 0.25,-0.6c0,-0.23 -0.09,-0.44 -0.25,-0.6c-0.16,-0.16 -0.37,-0.26 -0.6,-0.26c-0.23,0 -0.44,0.1 -0.6,0.26zm-1.64,35.57c-0.58,-0.58 -0.93,-1.37 -0.93,-2.25s0.36,-1.67 0.93,-2.25c0.57,-0.58 1.36,-0.92 2.25,-0.92c0.15,0 0.29,0.01 0.44,0.03l1.37,-2.43c0.21,-0.38 0.61,-0.59 1.01,-0.59l4.6,0l0,-3.15l-4.41,0c-0.64,0 -1.17,-0.53 -1.17,-1.17s0.53,-1.17 1.17,-1.17l4.41,0l0,-3.53l-5.58,0c-0.18,0.53 -0.48,1.01 -0.87,1.4c-0.65,0.65 -1.57,1.06 -2.57,1.06s-1.91,-0.41 -2.57,-1.06c-0.65,-0.66 -1.07,-1.57 -1.07,-2.57s0.42,-1.91 1.07,-2.57c0.65,-0.66 1.57,-1.07 2.57,-1.07s1.9,0.41 2.57,1.07c0.39,0.39 0.69,0.86 0.87,1.39l5.58,0l0,-3.34l-4.39,0c-0.64,0 -1.17,-0.53 -1.17,-1.17s0.53,-1.17 1.17,-1.17l4.39,0l0,-3.35l-4.6,0c-0.4,0 -0.8,-0.22 -1.01,-0.6l-1.37,-2.43c-0.15,0.02 -0.29,0.03 -0.44,0.03c-0.88,0 -1.67,-0.36 -2.25,-0.92c-0.58,-0.58 -0.93,-1.37 -0.93,-2.26c0,-0.88 0.36,-1.67 0.93,-2.25c0.57,-0.58 1.36,-0.93 2.25,-0.93c0.88,0 1.67,0.36 2.24,0.93c0.58,0.58 0.93,1.37 0.93,2.25c0,0.76 -0.26,1.47 -0.72,2.01l1.05,1.85l3.92,0l0,-1.13c0,-1.01 0.41,-1.91 1.08,-2.58c0.66,-0.66 1.57,-1.07 2.57,-1.07l1.13,0l0,-3.93l-1.85,-1.04c-0.54,0.44 -1.24,0.72 -2.01,0.72c-0.87,0 -1.67,-0.36 -2.25,-0.93c-0.58,-0.58 -0.93,-1.37 -0.93,-2.25c0,-0.89 0.36,-1.68 0.93,-2.26c0.58,-0.58 1.37,-0.92 2.25,-0.92c0.89,0 1.67,0.36 2.26,0.92c0.57,0.58 0.92,1.37 0.92,2.26c0,0.15 0,0.29 -0.03,0.44l2.43,1.37c0.38,0.21 0.59,0.6 0.59,1.01l0,4.6l3.16,0l0,-4.41c0,-0.64 0.52,-1.17 1.17,-1.17s1.16,0.53 1.16,1.17l0,4.41l3.54,0l0,-5.58c-0.54,-0.18 -1.01,-0.48 -1.4,-0.87c-0.65,-0.66 -1.06,-1.57 -1.06,-2.57s0.41,-1.91 1.06,-2.57c0.65,-0.66 1.57,-1.07 2.57,-1.07s1.91,0.41 2.57,1.07c0.65,0.65 1.06,1.57 1.06,2.57s-0.41,1.9 -1.06,2.57c-0.39,0.39 -0.86,0.69 -1.4,0.87l0,5.58l3.35,0l0,-4.39c0,-0.64 0.53,-1.17 1.17,-1.17s1.17,0.53 1.17,1.17l0,4.39l3.34,0l0,-4.6c0,-0.4 0.21,-0.8 0.59,-1.01l2.43,-1.37c-0.02,-0.15 -0.03,-0.29 -0.03,-0.44c0,-0.88 0.36,-1.68 0.93,-2.26c0.58,-0.58 1.36,-0.92 2.25,-0.92c0.88,0 1.67,0.36 2.26,0.92c0.57,0.58 0.92,1.37 0.92,2.26c0,0.88 -0.36,1.67 -0.92,2.25c-0.58,0.58 -1.37,0.93 -2.26,0.93c-0.76,0 -1.46,-0.27 -2.01,-0.72l-1.84,1.04l0,3.93l1.12,0c1.01,0 1.92,0.41 2.58,1.07c0.66,0.67 1.07,1.58 1.07,2.58l0,1.13l3.93,0l1.04,-1.85c-0.44,-0.54 -0.71,-1.24 -0.71,-2.01c0,-0.87 0.36,-1.67 0.92,-2.25c0.58,-0.58 1.37,-0.93 2.26,-0.93c0.88,0 1.67,0.36 2.24,0.93c0.58,0.58 0.92,1.37 0.92,2.25c0,0.89 -0.35,1.67 -0.92,2.26c-0.58,0.57 -1.37,0.92 -2.24,0.92c-0.15,0 -0.3,0 -0.44,-0.03l-1.37,2.43c-0.21,0.38 -0.61,0.59 -1.01,0.59l-4.6,0l0,3.16l4.41,0c0.64,0 1.16,0.52 1.16,1.16s-0.52,1.17 -1.16,1.17l-4.41,0l0,3.54l5.57,0c0.18,-0.54 0.49,-1.01 0.88,-1.4c0.65,-0.65 1.57,-1.06 2.57,-1.06s1.9,0.41 2.57,1.06c0.65,0.65 1.06,1.57 1.06,2.57s-0.41,1.91 -1.06,2.57c-0.65,0.65 -1.57,1.06 -2.57,1.06s-1.91,-0.41 -2.57,-1.06c-0.39,-0.39 -0.7,-0.86 -0.88,-1.4l-5.57,0l0,3.35l4.39,0c0.64,0 1.16,0.53 1.16,1.17s-0.52,1.17 -1.16,1.17l-4.39,0l0,3.34l4.6,0c0.4,0 0.8,0.23 1.01,0.6l1.37,2.43c0.14,-0.02 0.29,-0.03 0.44,-0.03c0.87,0 1.67,0.36 2.24,0.93c0.58,0.58 0.92,1.37 0.92,2.25c0,0.89 -0.35,1.67 -0.92,2.24c-0.58,0.58 -1.37,0.93 -2.24,0.93s-1.67,-0.36 -2.26,-0.93c-0.58,-0.57 -0.92,-1.36 -0.92,-2.24c0,-0.76 0.26,-1.46 0.71,-2.01l-1.04,-1.84l-3.93,0l0,1.12c0,1.01 -0.41,1.92 -1.07,2.58c-0.66,0.66 -1.57,1.07 -2.58,1.07l-1.12,0l0,3.93l1.84,1.04c0.55,-0.44 1.24,-0.71 2.01,-0.71c0.88,0 1.67,0.36 2.26,0.92c0.57,0.58 0.92,1.37 0.92,2.26c0,0.88 -0.36,1.67 -0.92,2.25c-0.58,0.58 -1.37,0.93 -2.26,0.93c-0.88,0 -1.67,-0.36 -2.25,-0.93c-0.58,-0.58 -0.93,-1.37 -0.93,-2.25c0,-0.15 0,-0.29 0.03,-0.44l-2.43,-1.37c-0.38,-0.21 -0.59,-0.61 -0.59,-1.01l0,-4.6l-3.14,0l0,4.41c0,0.64 -0.53,1.16 -1.17,1.16s-1.17,-0.52 -1.17,-1.16l0,-4.41l-3.54,0l0,5.57c0.54,0.18 1.02,0.49 1.4,0.88c0.65,0.65 1.06,1.57 1.06,2.57s-0.41,1.91 -1.06,2.57c-0.65,0.65 -1.57,1.06 -2.57,1.06s-1.9,-0.41 -2.57,-1.06c-0.65,-0.65 -1.06,-1.57 -1.06,-2.57s0.41,-1.91 1.06,-2.57c0.39,-0.39 0.87,-0.7 1.4,-0.88l0,-5.57l-3.35,0l0,4.39c0,0.64 -0.52,1.16 -1.17,1.16s-1.16,-0.52 -1.16,-1.16l0,-4.39l-3.35,0l0,4.6c0,0.4 -0.21,0.8 -0.59,1.01l-2.43,1.37c0.02,0.15 0.03,0.29 0.03,0.44c0,0.87 -0.36,1.67 -0.93,2.25c-0.57,0.58 -1.36,0.93 -2.25,0.93c-0.88,0 -1.67,-0.36 -2.25,-0.93c-0.58,-0.58 -0.93,-1.37 -0.93,-2.25c0,-0.88 0.36,-1.67 0.93,-2.24c0.57,-0.58 1.36,-0.93 2.25,-0.93c0.76,0 1.47,0.26 2.01,0.71l1.85,-1.04l0,-3.92l-1.13,0c-1.01,0 -1.91,-0.41 -2.58,-1.08c-0.66,-0.66 -1.07,-1.57 -1.07,-2.58l0,-1.12l-3.93,0l-1.04,1.84c0.44,0.55 0.71,1.24 0.71,2.01c0,0.88 -0.35,1.68 -0.92,2.25c-0.58,0.57 -1.37,0.92 -2.24,0.92s-1.67,-0.36 -2.26,-0.92l0,-0.02zm1.39,-2.25c0,0.24 0.1,0.45 0.26,0.61c0.15,0.15 0.36,0.25 0.6,0.25c0.23,0 0.44,-0.09 0.6,-0.25c0.16,-0.16 0.25,-0.37 0.25,-0.61c0,-0.23 -0.09,-0.44 -0.25,-0.6c-0.16,-0.15 -0.37,-0.25 -0.6,-0.25c-0.23,0 -0.44,0.09 -0.6,0.25c-0.16,0.16 -0.26,0.37 -0.26,0.6zm36.21,-27l0,21.28l-21.27,0l0,-21.28l21.27,0zm-21.66,-2.32l22.05,0c0.54,0 1.02,0.22 1.37,0.57c0.35,0.34 0.57,0.83 0.57,1.36l0,22.06c0,0.52 -0.22,1.01 -0.57,1.36c-0.35,0.35 -0.83,0.57 -1.37,0.57l-22.05,0c-0.53,0 -1.02,-0.22 -1.37,-0.57c-0.34,-0.35 -0.57,-0.83 -0.57,-1.36l0,-22.06c0,-0.53 0.23,-1.02 0.57,-1.36c0.35,-0.35 0.84,-0.57 1.37,-0.57zm14.14,9.85l0,6.22l-6.22,0l0,-6.22l6.22,0zm-6.28,-2.33l6.34,0c0.63,0 1.2,0.25 1.61,0.66c0.41,0.41 0.66,0.98 0.66,1.61l0,6.34c0,0.63 -0.25,1.2 -0.66,1.61c-0.41,0.41 -0.98,0.66 -1.61,0.66l-6.34,0c-0.63,0 -1.19,-0.25 -1.61,-0.66c-0.41,-0.41 -0.66,-0.98 -0.66,-1.61l0,-6.34c0,-0.63 0.25,-1.2 0.66,-1.61s0.99,-0.66 1.61,-0.66zm-8.53,47.18c1.64,-1.35 3.15,-2.65 4.53,-3.91c1.52,-1.39 2.92,-2.77 4.21,-4.13c0.44,-0.46 0.42,-1.2 -0.05,-1.64c-0.46,-0.44 -1.19,-0.42 -1.64,0.04c-1.2,1.27 -2.57,2.61 -4.09,4c-1.52,1.39 -3.17,2.8 -4.94,4.25c-2.19,1.52 -5.89,3.59 -9.58,4.62c-1.85,0.52 -3.67,0.77 -5.25,0.56c-1.44,-0.2 -2.68,-0.82 -3.53,-2.04c-0.36,-0.5 -0.65,-1.12 -0.87,-1.87c0.03,-0.25 0.19,-0.77 0.48,-1.56c0.39,-1.03 0.97,-2.41 1.75,-4.16c0.03,-0.05 0.05,-0.11 0.07,-0.18c0.2,-0.6 -0.13,-1.26 -0.74,-1.46c-0.4,-0.13 -1.13,-0.38 -2.19,-0.81c-0.43,-0.17 -0.9,-0.37 -1.43,-0.6c0.65,-0.98 1.64,-2.45 2.8,-3.95c0.31,-0.36 0.39,-0.89 0.14,-1.34c-0.3,-0.55 -1.01,-0.76 -1.57,-0.46c0,0 -0.92,0.52 -2.46,0.44l0.23,-4.84l0,-0.05c0,-0.64 -0.5,-1.16 -1.14,-1.18l-0.3,0c-1.66,-0.01 -5.04,-0.06 -6.2,-1.05c0.18,-0.6 0.81,-1.79 1.89,-3.55c1.43,-2.35 3.57,-5.53 6.46,-9.54c0.08,-0.11 0.14,-0.23 0.17,-0.36c1,-3.47 0.18,-6.59 -0.65,-9.68c-0.5,-1.85 -0.98,-3.69 -1.02,-5.49c-0.15,-6.21 1.58,-11.63 4.59,-16.13c3.2,-4.81 7.87,-8.57 13.29,-11.2c5.45,-2.63 11.65,-4.09 17.9,-4.24c8,-0.19 16.05,1.78 22.64,6.19c12.23,8.17 16.18,18.35 15.61,29.14c-0.58,10.96 -5.77,22.61 -11.72,33.47c-0.37,0.68 -0.67,1.33 -0.91,2.03c-0.23,0.67 -0.39,1.38 -0.52,2.15c-0.62,3.89 -0.97,7.54 -1.1,10.87c-0.13,3.72 0,7.03 0.32,9.84c0.01,0.13 0,0.25 -0.02,0.35c-0.03,0.1 -0.09,0.19 -0.18,0.29c-0.09,0.09 -0.18,0.15 -0.26,0.2c-0.1,0.04 -0.21,0.06 -0.34,0.06c-4.43,-0.05 -9.29,0 -14.04,0.06c-7.56,0.1 -14.83,0.18 -19.59,-0.18c-0.12,0 -0.22,-0.03 -0.31,-0.08c-0.08,-0.05 -0.16,-0.12 -0.24,-0.2c-0.08,-0.1 -0.13,-0.19 -0.15,-0.28c-0.04,-0.08 -0.04,-0.19 -0.02,-0.31c0.04,-0.5 0.09,-0.92 0.15,-1.38c0.3,-2.24 0.71,-5.3 -0.2,-10.75l0.02,0.04z" fill-rule="evenodd" id="svg_1"/>
 </g>
</svg>