<svg xmlns="http://www.w3.org/2000/svg" xmlns:xlink="http://www.w3.org/1999/xlink" version="1.1" x="0px" y="0px" viewBox="0 0 161.492 203.415" enable-background="new 0 0 161.492 162.732" xml:space="preserve"><g><polygon points="50.948,102.304 60.096,102.304 55.554,89.189  "/><path d="M81.666,10.691c-39.138,0-70.866,31.728-70.866,70.866s31.728,70.865,70.866,70.865c39.138,0,70.866-31.727,70.866-70.865   S120.804,10.691,81.666,10.691z M67.772,120.663l-4.542-11.004H48.134L43.4,120.663h-8.7l17.719-42.668h6.205l17.911,42.668H67.772   z M88.239,120.663h-7.931V77.995h7.931V120.663z M83.407,20.142c33.138,0.924,59.719,28.057,59.719,61.415   c0,0.151-0.01,0.301-0.014,0.453C111.702,77.264,87.067,51.898,83.407,20.142z"/></g><text x="0" y="177.732" fill="#000000" font-size="5px" font-weight="bold" font-family="'Helvetica Neue', Helvetica, Arial-Unicode, Arial, Sans-serif">Created by sachin modgekar</text><text x="0" y="182.732" fill="#000000" font-size="5px" font-weight="bold" font-family="'Helvetica Neue', Helvetica, Arial-Unicode, Arial, Sans-serif">from the Noun Project</text></svg>